<?xml version="1.0" encoding="utf-8"?>
<!-- Generator: Adobe Illustrator 27.0.0, SVG Export Plug-In . SVG Version: 6.00 Build 0)  -->
<svg version="1.1" id="Layer_1" xmlns="http://www.w3.org/2000/svg" xmlns:xlink="http://www.w3.org/1999/xlink" x="0px" y="0px"
	 width="400.1px" height="61.6px" viewBox="0 0 400.1 61.6" style="enable-background:new 0 0 400.1 61.6;" xml:space="preserve">
<style type="text/css">
	.st0{fill-rule:evenodd;clip-rule:evenodd;fill:#010000;}
</style>
<g>
	<path class="st0" d="M12.3,2.3H0v33.3h5.9V23h6.6c3.3,0,5.9-0.9,7.8-2.8s2.9-4.4,2.9-7.6s-1-5.7-2.9-7.6
		C18.3,3.2,15.7,2.3,12.3,2.3z M15.8,17c-0.9,1-2.3,1.5-4.1,1.5H5.9V6.8h5.9c1.8,0,3.2,0.5,4.1,1.5s1.4,2.4,1.4,4.4S16.7,16,15.8,17
		z"/>
	<path class="st0" d="M45,12.3c-1.5-1.3-3.9-1.9-7.1-1.9c-1.8,0-3.5,0.2-5.3,0.5c-1.7,0.4-3.2,0.8-4.4,1.4v4
		c3.2-1.1,6.1-1.6,8.6-1.6c1.8,0,3,0.3,3.7,1c0.7,0.6,1.1,1.8,1.1,3.4v2.8c-2-0.5-3.9-0.7-5.6-0.7c-2.9,0-5.2,0.7-6.9,2.1
		c-1.7,1.4-2.6,3.3-2.6,5.7c0,2.1,0.7,3.9,2.1,5.2s3.2,2,5.4,2c1.3,0,2.7-0.3,4.1-0.8c1.4-0.5,2.6-1.3,3.7-2.3l0.4,2.4h4.9V18.3
		C47.3,15.6,46.5,13.6,45,12.3z M41.6,29.9c-0.9,0.7-1.9,1.3-2.9,1.7c-1,0.4-1.9,0.6-2.9,0.6c-1.1,0-2-0.3-2.6-0.9s-0.9-1.5-0.9-2.6
		c0-2.6,1.6-3.9,4.9-3.9c1.3,0,2.7,0.2,4.4,0.5V29.9z"/>
	<path class="st0" d="M62.1,30.4l-6.6-19.3h-5.7l9.6,24.7l-0.6,1.7c-0.6,1.7-1.3,2.9-2,3.4s-1.7,0.7-3.1,0.7c-0.9,0-1.7-0.1-2.4-0.2
		v3.9c1.2,0.5,2.6,0.7,4,0.7c2,0,3.5-0.5,4.8-1.5c1.2-1,2.3-2.7,3.2-5.1l10.9-28.3h-5.7L62.1,30.4z"/>
	<polygon class="st0" points="113.5,30 108.6,11.1 103.2,11.1 98.3,29.7 93.1,11.1 87.5,11.1 95.4,35.5 100.9,35.5 105.7,17.2 
		110.5,35.5 116.1,35.5 124.2,11.1 118.5,11.1 	"/>
	<rect x="128.2" y="11.1" class="st0" width="5.7" height="24.4"/>
	<path class="st0" d="M131,0.5c-1.1,0-1.9,0.3-2.5,0.9c-0.6,0.6-0.9,1.4-0.9,2.4s0.3,1.8,0.9,2.4c0.6,0.6,1.4,0.9,2.5,0.9
		s1.9-0.3,2.5-0.9s0.9-1.4,0.9-2.4s-0.3-1.8-0.9-2.4C132.9,0.8,132.1,0.5,131,0.5z"/>
	<path class="st0" d="M148.7,30.7c-0.5-0.5-0.8-1.2-0.8-2.3v-13h7v-4.3h-7V4.4h-4.6l-0.9,6.9l-4.3,0.6v3.6h4.1v13.2
		c0,2.4,0.6,4.2,1.8,5.4s3.1,1.8,5.6,1.8c1.9,0,3.7-0.3,5.4-0.9v-4c-1.1,0.3-2.4,0.4-3.7,0.4C150.1,31.4,149.3,31.2,148.7,30.7z"/>
	<path class="st0" d="M174.3,10.4c-3,0-6,1-9,3.1V0h-5.7v35.5h5.7V16.9c2.2-1.4,4.4-2.1,6.5-2.1c1.4,0,2.4,0.4,3.1,1.1
		c0.6,0.7,1,1.9,1,3.4v16.2h5.7v-18c0-2.3-0.6-4.1-1.8-5.4C178.4,11,176.7,10.4,174.3,10.4z"/>
	<path class="st0" d="M321.6,45.6c-13.2,5.6-27.5,8.3-40.5,8.3c-19.3,0-38-5.3-53.2-14.1c-1.3-0.8-2.3,0.6-1.2,1.6
		c14,12.7,32.5,20.3,53.1,20.3c14.7,0,31.7-4.6,43.5-13.3l0,0C325.2,46.9,323.6,44.7,321.6,45.6z"/>
	<path class="st0" d="M314.1,40.7c-1,0.7-0.9,1.7,0.3,1.6c3.8-0.5,12.2-1.5,13.7,0.5l0,0c1.5,1.9-1.7,9.9-3.1,13.4
		c-0.4,1.1,0.5,1.5,1.5,0.7c6.3-5.3,7.9-16.3,6.6-17.9C331.9,37.3,320.9,36,314.1,40.7z"/>
	<path class="st0" d="M337.2,27.3c-3.6-2-7.8-2.6-11.7-2.5l10.7-15.2c1-1.4,1.6-2.2,1.6-2.9v-4c0-0.7-0.5-1.2-1.2-1.2H316
		c-0.6,0-1.2,0.5-1.2,1.2v4.6l0,0c0,0.7,0.5,1.2,1.2,1.2h10.8l-12.4,17.7c-0.8,1.1-0.8,2.4-0.8,3.2V34c0,0.7,0.8,1.5,1.5,1.1
		c7-3.7,15.4-3.4,21.8,0c0.8,0.4,1.5-0.4,1.5-1v-4.9C338.2,28.4,338,27.7,337.2,27.3z"/>
	<path class="st0" d="M355.4,0.9L355.4,0.9L355.4,0.9z"/>
	<path class="st0" d="M355.4,0.9c-9.1,0-14.1,7.8-14.1,17.8c0,9.9,5.3,17.9,14.1,17.9c8.8,0,14.3-7.4,14.3-17.6
		C369.7,8.9,364.7,0.9,355.4,0.9z M355.4,30c-4.9,0-4.9-8.4-4.9-12.3s0.3-10.2,4.9-10.2c2,0,3.4,0.9,4.1,3.1
		c0.8,2.6,0.9,5.8,0.9,8.5C360.5,23.3,360.3,30,355.4,30z"/>
	<path class="st0" d="M286.5,16.4c-3.9,1.7-6.7,5.2-6.7,10.2c0,6.5,4.1,9.8,9.4,9.8c4.5,0,6.9-1.1,10.3-4.6c0,0,1.5,2.5,3.6,4.2
		c0.3,0.2,1.1,0.2,1.5-0.1l0,0c0,0,3.5-3.1,4.8-4.1c0.5-0.4,0.4-1.1,0-1.7c-1.1-1.6-2.4-2.9-2.4-5.8v-9.8c0-4.1,0.3-7.9-2.8-10.8
		c-2.4-2.3-6.4-3.1-9.4-3.1c-6,0-12.6,2.2-14,9.6c-0.2,0.8,0.5,1.3,0.9,1.3l6,0.6c0.5,0.1,1.1-0.5,1.2-1.2c0.4-2.4,2.7-3.7,5-3.7
		c1.3,0,2.7,0.5,3.5,1.6c1.1,1.4,0.8,5.4,0.8,5.4C294.7,14.7,289.9,14.9,286.5,16.4z M297.1,27.3c-1,1.8-2.6,2.8-4.3,2.8
		c-2.4,0-3.8-1.8-3.8-4.5c0-5.3,4.8-6.3,9.3-6.3v1.4C298.3,23.1,298.4,25.1,297.1,27.3z"/>
	<path class="st0" d="M227.3,31.8c0.5-0.4,0.4-1.1,0-1.7c-1.1-1.6-2.4-2.9-2.4-5.8v-9.8c0-4.1,0.3-7.9-2.8-10.8
		c-2.4-2.3-6.4-3.1-9.4-3.1c-6,0-12.6,2.2-14,9.6c-0.2,0.8,0.5,1.3,0.9,1.3l6,0.6c0.5,0.1,1.1-0.5,1.2-1.2c0.4-2.4,2.7-3.7,5-3.7
		c1.3,0,2.7,0.5,3.5,1.6c1.1,1.4,0.8,5.4,0.8,5.4c-3.6,0.4-8.4,0.7-11.8,2.2c-3.9,1.7-6.7,5.2-6.7,10.2c0,6.5,4.1,9.8,9.4,9.8
		c4.5,0,6.9-1.1,10.3-4.6c0,0,1.5,2.5,3.6,4.2c0.3,0.2,1.1,0.2,1.5-0.1l0,0C222.5,35.9,226,32.8,227.3,31.8z M215,27.3
		c-1,1.8-2.6,2.8-4.3,2.8c-2.4,0-3.8-1.8-3.8-4.5c0-5.3,4.8-6.3,9.3-6.3v1.4l0,0C216.2,23.1,216.2,25.1,215,27.3z"/>
	<path class="st0" d="M233.4,36h6.3c0.6,0,1.2-0.5,1.2-1.2v-17l0,0c0-3.7-0.2-8.9,4.3-8.9s3.9,5.3,3.9,8.9v17c0,0.6,0.5,1.1,1.1,1.2
		h6.3c0.7,0,1.2-0.5,1.2-1.2v-17c0-1.8-0.1-4.5,0.6-6.2C258.9,10,260.5,9,262,9c1.8,0,3.2,0.6,3.7,2.8c0.3,1.3,0.2,4.7,0.2,6v17
		c0,0.6,0.5,1.1,1.1,1.2h6.3c0.7,0,1.2-0.5,1.2-1.2V14.5c0-3.4,0.4-7.4-1.6-10.1c-1.8-2.4-4.6-3.5-7.3-3.5c-3.7,0-7.1,1.9-8.7,6
		c-1.8-4.1-4.2-6-8.1-6c-3.9,0-6.7,1.9-8.2,6h-0.1V2.8c0-0.6-0.5-1.2-1.2-1.2h-5.8c-0.6,0-1.2,0.5-1.2,1.2v32
		C232.2,35.5,232.7,36,233.4,36z"/>
	<path class="st0" d="M398.5,4.7c-1.8-2.8-4.5-3.8-7.3-3.8c-4.3,0-6.8,2.1-8.5,6.5h-0.1V2.5c0-0.4-0.5-0.9-1.2-0.9h-5.8
		c-0.6,0-1.2,0.5-1.2,1.2v32c0,0.6,0.5,1.2,1.2,1.2h6.3c0.6,0,1.2-0.5,1.2-1.2V17.5c0-2.2,0.1-4.2,1-6.1c0.6-1.2,1.9-2.5,3.6-2.5
		c1.4,0,3.9,0.2,3.9,6.7V35c0.1,0.5,0.5,1,1.1,1h6.3c0.6,0,1.1-0.4,1.2-1V14.8C400.1,11.6,400.1,7.3,398.5,4.7z"/>
</g>
</svg>
